<svg width="874" height="918" viewBox="0 0 874 918" fill="none" xmlns="http://www.w3.org/2000/svg">
<path d="M186.5 379L403.5 238M403.5 238L573.5 352.5L256 587.5L644.5 642.5L835.5 790.5L403.5 238ZM403.5 251.5L260 600L186.5 367.5L631 634.5" stroke="#6798E1"/>
<path d="M543.5 520L195.5 385.5" stroke="#6798E1" stroke-width="3"/>
<path d="M546 521L640.5 642" stroke="#6798E1" stroke-width="3"/>
<path d="M22.5 10.5L401 233.5" stroke="#6798E1" stroke-width="3"/>
<path d="M837.5 798.5L585.5 362.5" stroke="#6798E1" stroke-width="3"/>
<path d="M845 795L745 110.5" stroke="#6798E1" stroke-width="3"/>
<path d="M746 97L409 235.5" stroke="#6798E1" stroke-width="3"/>
<path d="M297.5 129L259 587" stroke="#6798E1" stroke-width="3"/>
<path d="M21 27L184.5 385" stroke="#6798E1" stroke-width="3"/>
<path d="M327 791H837.5" stroke="#6798E1" stroke-width="3"/>
<path d="M648 633.5L581 355.5" stroke="#6798E1" stroke-width="3"/>
<path d="M579 355L738.5 102M259.5 592L546.5 518M589 365L546.5 514" stroke="#6798E1"/>
<path d="M291.5 129.5L735 99L256 597" stroke="#6798E1" stroke-width="3"/>
<path d="M579 355L738.5 102M643 641L324 784M324 784L406.5 240.5M324 784L538.5 522M589 365L546.5 514M81 725L328 794L265 597L81 717L193 379" stroke="#6798E1"/>
<path d="M294.5 124.5L403.5 231M294.5 124.5L413.5 241M294.5 124.5L184.5 385L580.5 360.5" stroke="#6798E1"/>
<g filter="url(#filter0_d_25_107)">
<circle cx="187" cy="380" r="23" fill="#B3C10E"/>
<circle cx="186" cy="379" r="23" fill="#DFF112"/>
</g>
<g filter="url(#filter1_d_25_107)">
<circle cx="294.851" cy="125.851" r="16.1489" fill="#A26914"/>
<circle cx="294.149" cy="125.149" r="16.1489" fill="#DB8C16"/>
</g>
<g filter="url(#filter2_d_25_107)">
<circle cx="575.851" cy="357.851" r="16.1489" fill="#201F1F"/>
<circle cx="575.149" cy="357.149" r="16.1489" fill="#413E3E"/>
</g>
<g filter="url(#filter3_d_25_107)">
<circle cx="740" cy="102" r="23" fill="#C0BFBF"/>
<circle cx="739" cy="101" r="23" fill="#D9D9D9"/>
</g>
<g filter="url(#filter4_d_25_107)">
<circle cx="644.383" cy="639.383" r="17.617" fill="#0C9A12"/>
<circle cx="643.617" cy="638.617" r="17.617" fill="#13D01B"/>
</g>
<g filter="url(#filter5_d_25_107)">
<circle cx="326.426" cy="786.426" r="19.5745" fill="#C0BFBF"/>
<circle cx="325.574" cy="785.574" r="19.5745" fill="#D9D9D9"/>
</g>
<g filter="url(#filter6_d_25_107)">
<circle cx="81.4255" cy="722.426" r="19.5745" fill="#52063D"/>
<circle cx="80.5745" cy="721.574" r="19.5745" fill="#94096D"/>
</g>
<g filter="url(#filter7_d_25_107)">
<circle cx="258.426" cy="594.426" r="19.5745" fill="#107EBB"/>
<circle cx="257.574" cy="593.574" r="19.5745" fill="#249DE0"/>
</g>
<g filter="url(#filter8_d_25_107)">
<circle cx="838.298" cy="792.298" r="13.7021" fill="#17717D"/>
<circle cx="837.702" cy="791.702" r="13.7021" fill="#2199A9"/>
</g>
<g filter="url(#filter9_d_25_107)">
<circle cx="545.298" cy="517.298" r="13.7021" fill="#6A297A"/>
<circle cx="544.702" cy="516.702" r="13.7021" fill="#943CAA"/>
</g>
<g filter="url(#filter10_d_25_107)">
<circle cx="404.915" cy="237.915" r="19.0851" fill="#1E9790"/>
<circle cx="404.085" cy="237.085" r="19.0851" fill="#2AD0C6"/>
</g>
<g filter="url(#filter11_d_25_107)">
<circle cx="21.9149" cy="23.9149" r="19.0851" fill="#C0BFBF"/>
<circle cx="21.0851" cy="23.0851" r="19.0851" fill="#D9D9D9"/>
</g>
<g filter="url(#filter12_f_25_107)">
<circle cx="288.364" cy="363.069" r="6.91419" fill="#535353"/>
<circle cx="676.883" cy="257.546" r="6.91419" fill="#535353"/>
<circle cx="848.359" cy="521.355" r="6.91419" fill="#535353"/>
<circle cx="486.221" cy="691.632" r="6.91419" fill="#535353"/>
<circle cx="277.572" cy="535.744" r="6.91419" fill="#535353"/>
<circle cx="80.9142" cy="137.633" r="6.91419" fill="#535353"/>
<circle cx="509.004" cy="178.403" r="6.91419" fill="#535353"/>
<circle cx="409.476" cy="24.9142" r="6.91419" fill="#535353"/>
<circle cx="622.922" cy="893.086" r="6.91419" fill="#535353"/>
<path d="M622.603 894.566L485.302 691.912L848.639 522.235L276.054 537.824L276.42 531.828M276.42 531.828L286.846 360.952L678.363 259.625L506.887 175.686L276.42 531.828Z" stroke="#444444"/>
<path d="M287.445 360.952L79.9956 136.115L510.484 176.885L410.357 21.5974M678.362 260.824L674.67 260.081L79.9956 140.311M276.653 536.625L280.128 534.21L488.3 688.315L410.357 28.7922L290.443 363.95L482.904 688.315M849.838 524.633L846.432 519.237" stroke="#444444"/>
</g>
<defs>
<filter id="filter0_d_25_107" x="161" y="355" width="55" height="55" filterUnits="userSpaceOnUse" color-interpolation-filters="sRGB">
<feFlood flood-opacity="0" result="BackgroundImageFix"/>
<feColorMatrix in="SourceAlpha" type="matrix" values="0 0 0 0 0 0 0 0 0 0 0 0 0 0 0 0 0 0 127 0" result="hardAlpha"/>
<feOffset dx="2" dy="3"/>
<feGaussianBlur stdDeviation="2"/>
<feComposite in2="hardAlpha" operator="out"/>
<feColorMatrix type="matrix" values="0 0 0 0 0 0 0 0 0 0 0 0 0 0 0 0 0 0 0.17 0"/>
<feBlend mode="normal" in2="BackgroundImageFix" result="effect1_dropShadow_25_107"/>
<feBlend mode="normal" in="SourceGraphic" in2="effect1_dropShadow_25_107" result="shape"/>
</filter>
<filter id="filter1_d_25_107" x="276" y="108" width="41" height="41" filterUnits="userSpaceOnUse" color-interpolation-filters="sRGB">
<feFlood flood-opacity="0" result="BackgroundImageFix"/>
<feColorMatrix in="SourceAlpha" type="matrix" values="0 0 0 0 0 0 0 0 0 0 0 0 0 0 0 0 0 0 127 0" result="hardAlpha"/>
<feOffset dx="2" dy="3"/>
<feGaussianBlur stdDeviation="2"/>
<feComposite in2="hardAlpha" operator="out"/>
<feColorMatrix type="matrix" values="0 0 0 0 0 0 0 0 0 0 0 0 0 0 0 0 0 0 0.17 0"/>
<feBlend mode="normal" in2="BackgroundImageFix" result="effect1_dropShadow_25_107"/>
<feBlend mode="normal" in="SourceGraphic" in2="effect1_dropShadow_25_107" result="shape"/>
</filter>
<filter id="filter2_d_25_107" x="557" y="340" width="41" height="41" filterUnits="userSpaceOnUse" color-interpolation-filters="sRGB">
<feFlood flood-opacity="0" result="BackgroundImageFix"/>
<feColorMatrix in="SourceAlpha" type="matrix" values="0 0 0 0 0 0 0 0 0 0 0 0 0 0 0 0 0 0 127 0" result="hardAlpha"/>
<feOffset dx="2" dy="3"/>
<feGaussianBlur stdDeviation="2"/>
<feComposite in2="hardAlpha" operator="out"/>
<feColorMatrix type="matrix" values="0 0 0 0 0 0 0 0 0 0 0 0 0 0 0 0 0 0 0.17 0"/>
<feBlend mode="normal" in2="BackgroundImageFix" result="effect1_dropShadow_25_107"/>
<feBlend mode="normal" in="SourceGraphic" in2="effect1_dropShadow_25_107" result="shape"/>
</filter>
<filter id="filter3_d_25_107" x="714" y="77" width="55" height="55" filterUnits="userSpaceOnUse" color-interpolation-filters="sRGB">
<feFlood flood-opacity="0" result="BackgroundImageFix"/>
<feColorMatrix in="SourceAlpha" type="matrix" values="0 0 0 0 0 0 0 0 0 0 0 0 0 0 0 0 0 0 127 0" result="hardAlpha"/>
<feOffset dx="2" dy="3"/>
<feGaussianBlur stdDeviation="2"/>
<feComposite in2="hardAlpha" operator="out"/>
<feColorMatrix type="matrix" values="0 0 0 0 0 0 0 0 0 0 0 0 0 0 0 0 0 0 0.17 0"/>
<feBlend mode="normal" in2="BackgroundImageFix" result="effect1_dropShadow_25_107"/>
<feBlend mode="normal" in="SourceGraphic" in2="effect1_dropShadow_25_107" result="shape"/>
</filter>
<filter id="filter4_d_25_107" x="624" y="620" width="44" height="44" filterUnits="userSpaceOnUse" color-interpolation-filters="sRGB">
<feFlood flood-opacity="0" result="BackgroundImageFix"/>
<feColorMatrix in="SourceAlpha" type="matrix" values="0 0 0 0 0 0 0 0 0 0 0 0 0 0 0 0 0 0 127 0" result="hardAlpha"/>
<feOffset dx="2" dy="3"/>
<feGaussianBlur stdDeviation="2"/>
<feComposite in2="hardAlpha" operator="out"/>
<feColorMatrix type="matrix" values="0 0 0 0 0 0 0 0 0 0 0 0 0 0 0 0 0 0 0.17 0"/>
<feBlend mode="normal" in2="BackgroundImageFix" result="effect1_dropShadow_25_107"/>
<feBlend mode="normal" in="SourceGraphic" in2="effect1_dropShadow_25_107" result="shape"/>
</filter>
<filter id="filter5_d_25_107" x="304" y="765" width="48" height="48" filterUnits="userSpaceOnUse" color-interpolation-filters="sRGB">
<feFlood flood-opacity="0" result="BackgroundImageFix"/>
<feColorMatrix in="SourceAlpha" type="matrix" values="0 0 0 0 0 0 0 0 0 0 0 0 0 0 0 0 0 0 127 0" result="hardAlpha"/>
<feOffset dx="2" dy="3"/>
<feGaussianBlur stdDeviation="2"/>
<feComposite in2="hardAlpha" operator="out"/>
<feColorMatrix type="matrix" values="0 0 0 0 0 0 0 0 0 0 0 0 0 0 0 0 0 0 0.17 0"/>
<feBlend mode="normal" in2="BackgroundImageFix" result="effect1_dropShadow_25_107"/>
<feBlend mode="normal" in="SourceGraphic" in2="effect1_dropShadow_25_107" result="shape"/>
</filter>
<filter id="filter6_d_25_107" x="59" y="701" width="48" height="48" filterUnits="userSpaceOnUse" color-interpolation-filters="sRGB">
<feFlood flood-opacity="0" result="BackgroundImageFix"/>
<feColorMatrix in="SourceAlpha" type="matrix" values="0 0 0 0 0 0 0 0 0 0 0 0 0 0 0 0 0 0 127 0" result="hardAlpha"/>
<feOffset dx="2" dy="3"/>
<feGaussianBlur stdDeviation="2"/>
<feComposite in2="hardAlpha" operator="out"/>
<feColorMatrix type="matrix" values="0 0 0 0 0 0 0 0 0 0 0 0 0 0 0 0 0 0 0.17 0"/>
<feBlend mode="normal" in2="BackgroundImageFix" result="effect1_dropShadow_25_107"/>
<feBlend mode="normal" in="SourceGraphic" in2="effect1_dropShadow_25_107" result="shape"/>
</filter>
<filter id="filter7_d_25_107" x="236" y="573" width="48" height="48" filterUnits="userSpaceOnUse" color-interpolation-filters="sRGB">
<feFlood flood-opacity="0" result="BackgroundImageFix"/>
<feColorMatrix in="SourceAlpha" type="matrix" values="0 0 0 0 0 0 0 0 0 0 0 0 0 0 0 0 0 0 127 0" result="hardAlpha"/>
<feOffset dx="2" dy="3"/>
<feGaussianBlur stdDeviation="2"/>
<feComposite in2="hardAlpha" operator="out"/>
<feColorMatrix type="matrix" values="0 0 0 0 0 0 0 0 0 0 0 0 0 0 0 0 0 0 0.17 0"/>
<feBlend mode="normal" in2="BackgroundImageFix" result="effect1_dropShadow_25_107"/>
<feBlend mode="normal" in="SourceGraphic" in2="effect1_dropShadow_25_107" result="shape"/>
</filter>
<filter id="filter8_d_25_107" x="822" y="777" width="36" height="36" filterUnits="userSpaceOnUse" color-interpolation-filters="sRGB">
<feFlood flood-opacity="0" result="BackgroundImageFix"/>
<feColorMatrix in="SourceAlpha" type="matrix" values="0 0 0 0 0 0 0 0 0 0 0 0 0 0 0 0 0 0 127 0" result="hardAlpha"/>
<feOffset dx="2" dy="3"/>
<feGaussianBlur stdDeviation="2"/>
<feComposite in2="hardAlpha" operator="out"/>
<feColorMatrix type="matrix" values="0 0 0 0 0 0 0 0 0 0 0 0 0 0 0 0 0 0 0.17 0"/>
<feBlend mode="normal" in2="BackgroundImageFix" result="effect1_dropShadow_25_107"/>
<feBlend mode="normal" in="SourceGraphic" in2="effect1_dropShadow_25_107" result="shape"/>
</filter>
<filter id="filter9_d_25_107" x="529" y="502" width="36" height="36" filterUnits="userSpaceOnUse" color-interpolation-filters="sRGB">
<feFlood flood-opacity="0" result="BackgroundImageFix"/>
<feColorMatrix in="SourceAlpha" type="matrix" values="0 0 0 0 0 0 0 0 0 0 0 0 0 0 0 0 0 0 127 0" result="hardAlpha"/>
<feOffset dx="2" dy="3"/>
<feGaussianBlur stdDeviation="2"/>
<feComposite in2="hardAlpha" operator="out"/>
<feColorMatrix type="matrix" values="0 0 0 0 0 0 0 0 0 0 0 0 0 0 0 0 0 0 0.17 0"/>
<feBlend mode="normal" in2="BackgroundImageFix" result="effect1_dropShadow_25_107"/>
<feBlend mode="normal" in="SourceGraphic" in2="effect1_dropShadow_25_107" result="shape"/>
</filter>
<filter id="filter10_d_25_107" x="383" y="217" width="47" height="47.0001" filterUnits="userSpaceOnUse" color-interpolation-filters="sRGB">
<feFlood flood-opacity="0" result="BackgroundImageFix"/>
<feColorMatrix in="SourceAlpha" type="matrix" values="0 0 0 0 0 0 0 0 0 0 0 0 0 0 0 0 0 0 127 0" result="hardAlpha"/>
<feOffset dx="2" dy="3"/>
<feGaussianBlur stdDeviation="2"/>
<feComposite in2="hardAlpha" operator="out"/>
<feColorMatrix type="matrix" values="0 0 0 0 0 0 0 0 0 0 0 0 0 0 0 0 0 0 0.17 0"/>
<feBlend mode="normal" in2="BackgroundImageFix" result="effect1_dropShadow_25_107"/>
<feBlend mode="normal" in="SourceGraphic" in2="effect1_dropShadow_25_107" result="shape"/>
</filter>
<filter id="filter11_d_25_107" x="0" y="3" width="47" height="47" filterUnits="userSpaceOnUse" color-interpolation-filters="sRGB">
<feFlood flood-opacity="0" result="BackgroundImageFix"/>
<feColorMatrix in="SourceAlpha" type="matrix" values="0 0 0 0 0 0 0 0 0 0 0 0 0 0 0 0 0 0 127 0" result="hardAlpha"/>
<feOffset dx="2" dy="3"/>
<feGaussianBlur stdDeviation="2"/>
<feComposite in2="hardAlpha" operator="out"/>
<feColorMatrix type="matrix" values="0 0 0 0 0 0 0 0 0 0 0 0 0 0 0 0 0 0 0.17 0"/>
<feBlend mode="normal" in2="BackgroundImageFix" result="effect1_dropShadow_25_107"/>
<feBlend mode="normal" in="SourceGraphic" in2="effect1_dropShadow_25_107" result="shape"/>
</filter>
<filter id="filter12_f_25_107" x="56" y="0" width="817.273" height="918" filterUnits="userSpaceOnUse" color-interpolation-filters="sRGB">
<feFlood flood-opacity="0" result="BackgroundImageFix"/>
<feBlend mode="normal" in="SourceGraphic" in2="BackgroundImageFix" result="shape"/>
<feGaussianBlur stdDeviation="9" result="effect1_foregroundBlur_25_107"/>
</filter>
</defs>
</svg>
