<svg width="493" height="176" viewBox="0 0 493 176" fill="none" xmlns="http://www.w3.org/2000/svg">
<path d="M186.333 102.583V100.666C186.333 94.166 187.278 88.1382 189.167 82.5827C191.056 76.9716 193.778 72.1105 197.333 67.9994C200.889 63.8327 205.195 60.6105 210.25 58.3327C215.306 55.9994 220.972 54.8327 227.25 54.8327C233.583 54.8327 239.278 55.9994 244.334 58.3327C249.445 60.6105 253.778 63.8327 257.334 67.9994C260.945 72.1105 263.695 76.9716 265.584 82.5827C267.472 88.1382 268.417 94.166 268.417 100.666V102.583C268.417 109.083 267.472 115.11 265.584 120.666C263.695 126.222 260.945 131.083 257.334 135.249C253.778 139.36 249.472 142.583 244.417 144.916C239.417 147.194 233.75 148.333 227.417 148.333C221.083 148.333 215.389 147.194 210.333 144.916C205.278 142.583 200.945 139.36 197.333 135.249C193.778 131.083 191.056 126.222 189.167 120.666C187.278 115.11 186.333 109.083 186.333 102.583ZM201.75 100.666V102.583C201.75 107.083 202.278 111.333 203.333 115.333C204.389 119.277 205.972 122.777 208.083 125.833C210.25 128.888 212.945 131.305 216.167 133.083C219.389 134.805 223.139 135.666 227.417 135.666C231.639 135.666 235.334 134.805 238.5 133.083C241.722 131.305 244.389 128.888 246.5 125.833C248.611 122.777 250.195 119.277 251.25 115.333C252.361 111.333 252.917 107.083 252.917 102.583V100.666C252.917 96.2216 252.361 92.0271 251.25 88.0827C250.195 84.0827 248.584 80.5549 246.417 77.4994C244.306 74.3882 241.639 71.9438 238.417 70.166C235.25 68.3882 231.528 67.4994 227.25 67.4994C223.028 67.4994 219.306 68.3882 216.083 70.166C212.917 71.9438 210.25 74.3882 208.083 77.4994C205.972 80.5549 204.389 84.0827 203.333 88.0827C202.278 92.0271 201.75 96.2216 201.75 100.666Z" fill="#66A0F0"/>
<path d="M325.167 148.333C318.889 148.333 313.195 147.277 308.084 145.166C303.028 142.999 298.667 139.972 295 136.083C291.389 132.194 288.611 127.583 286.667 122.249C284.722 116.916 283.75 111.083 283.75 104.749V101.249C283.75 93.916 284.834 87.3882 287 81.666C289.167 75.8882 292.111 70.9994 295.834 66.9994C299.556 62.9994 303.778 59.9716 308.5 57.916C313.222 55.8605 318.111 54.8327 323.167 54.8327C329.611 54.8327 335.167 55.9438 339.834 58.166C344.556 60.3882 348.417 63.4994 351.417 67.4994C354.417 71.4438 356.639 76.1105 358.084 81.4994C359.528 86.8327 360.25 92.666 360.25 98.9994V105.916H292.917V93.3327H344.834V92.166C344.611 88.166 343.778 84.2771 342.334 80.4994C340.945 76.7216 338.722 73.6105 335.667 71.166C332.611 68.7216 328.445 67.4994 323.167 67.4994C319.667 67.4994 316.445 68.2494 313.5 69.7494C310.556 71.1938 308.028 73.3605 305.917 76.2494C303.806 79.1382 302.167 82.666 301 86.8327C299.834 90.9994 299.25 95.8049 299.25 101.249V104.749C299.25 109.027 299.834 113.055 301 116.833C302.222 120.555 303.972 123.833 306.25 126.666C308.584 129.499 311.389 131.722 314.667 133.333C318 134.944 321.778 135.749 326 135.749C331.445 135.749 336.056 134.638 339.834 132.416C343.611 130.194 346.917 127.222 349.75 123.499L359.084 130.916C357.139 133.86 354.667 136.666 351.667 139.333C348.667 141.999 344.972 144.166 340.584 145.833C336.25 147.499 331.111 148.333 325.167 148.333Z" fill="#66A0F0"/>
<path d="M395 56.4994V146.666H379.5V56.4994H395ZM378.334 32.5827C378.334 30.0827 379.084 27.9716 380.584 26.2493C382.139 24.5271 384.417 23.666 387.417 23.666C390.361 23.666 392.611 24.5271 394.167 26.2493C395.778 27.9716 396.584 30.0827 396.584 32.5827C396.584 34.9716 395.778 37.0271 394.167 38.7493C392.611 40.416 390.361 41.2493 387.417 41.2493C384.417 41.2493 382.139 40.416 380.584 38.7493C379.084 37.0271 378.334 34.9716 378.334 32.5827Z" fill="#66A0F0"/>
<path d="M476.584 129.166V18.666H492.084V146.666H477.917L476.584 129.166ZM415.917 102.583V100.833C415.917 93.9438 416.75 87.6938 418.417 82.0827C420.139 76.416 422.556 71.5549 425.667 67.4994C428.834 63.4438 432.584 60.3327 436.917 58.166C441.306 55.9438 446.195 54.8327 451.584 54.8327C457.25 54.8327 462.195 55.8327 466.417 57.8327C470.695 59.7771 474.306 62.6382 477.25 66.416C480.25 70.1382 482.611 74.6382 484.334 79.916C486.056 85.1938 487.25 91.166 487.917 97.8327V105.499C487.306 112.11 486.111 118.055 484.334 123.333C482.611 128.61 480.25 133.11 477.25 136.833C474.306 140.555 470.695 143.416 466.417 145.416C462.139 147.36 457.139 148.333 451.417 148.333C446.139 148.333 441.306 147.194 436.917 144.916C432.584 142.638 428.834 139.444 425.667 135.333C422.556 131.222 420.139 126.388 418.417 120.833C416.75 115.222 415.917 109.138 415.917 102.583ZM431.417 100.833V102.583C431.417 107.083 431.861 111.305 432.75 115.249C433.695 119.194 435.139 122.666 437.084 125.666C439.028 128.666 441.5 131.027 444.5 132.749C447.5 134.416 451.084 135.249 455.25 135.249C460.361 135.249 464.556 134.166 467.834 131.999C471.167 129.833 473.834 126.972 475.834 123.416C477.834 119.86 479.389 115.999 480.5 111.833V91.7494C479.834 88.6938 478.861 85.7494 477.584 82.916C476.361 80.0271 474.75 77.4716 472.75 75.2494C470.806 72.9716 468.389 71.166 465.5 69.8327C462.667 68.4994 459.306 67.8327 455.417 67.8327C451.195 67.8327 447.556 68.7216 444.5 70.4994C441.5 72.2216 439.028 74.6105 437.084 77.666C435.139 80.666 433.695 84.166 432.75 88.166C431.861 92.1105 431.417 96.3327 431.417 100.833Z" fill="#66A0F0"/>
<path fill-rule="evenodd" clip-rule="evenodd" d="M112.905 0H160V176H115.2V97.9633L84.7317 163.711C81.8329 169.966 72.9074 169.87 70.144 163.554L5.33333 15.415V170.667H40.5333V113.6H45.8667V176H0V2.66667L5.10975 1.59782L75.0301 161.416C75.9513 163.521 78.9265 163.553 79.8927 161.468L115.447 84.7454L120.533 85.8667V170.667H154.667V5.33333H116.428L80.6424 89.2062L40.7835 3.79436L45.6165 1.53897L80.4243 76.1271L112.905 0Z" fill="#66A0F0"/>
</svg>
