<svg width="87" height="31" viewBox="0 0 87 31" fill="none" xmlns="http://www.w3.org/2000/svg">
<g clip-path="url(#clip0_1_2)">
<path d="M32.8201 18.0685V17.7309C32.8201 16.586 32.9864 15.5243 33.3191 14.5458C33.6518 13.5574 34.1313 12.7012 34.7576 11.9771C35.3838 11.2432 36.1422 10.6757 37.0327 10.2745C37.9231 9.86348 38.9212 9.65799 40.027 9.65799C41.1425 9.65799 42.1455 9.86348 43.036 10.2745C43.9362 10.6757 44.6995 11.2432 45.3258 11.9771C45.9618 12.7012 46.4462 13.5574 46.7789 14.5458C47.1116 15.5243 47.2779 16.586 47.2779 17.7309V18.0685C47.2779 19.2134 47.1116 20.2751 46.7789 21.2536C46.4462 22.2322 45.9618 23.0884 45.3258 23.8223C44.6995 24.5464 43.9411 25.114 43.0507 25.5249C42.17 25.9261 41.1719 26.1267 40.0563 26.1267C38.9408 26.1267 37.9378 25.9261 37.0473 25.5249C36.1569 25.114 35.3936 24.5464 34.7576 23.8223C34.1313 23.0884 33.6518 22.2322 33.3191 21.2536C32.9864 20.2751 32.8201 19.2134 32.8201 18.0685ZM35.5355 17.7309V18.0685C35.5355 18.8611 35.6285 19.6097 35.8144 20.3142C36.0003 21.009 36.2792 21.6255 36.651 22.1637C37.0327 22.7019 37.5073 23.1275 38.0748 23.4407C38.6424 23.744 39.3029 23.8957 40.0563 23.8957C40.8 23.8957 41.4508 23.744 42.0085 23.4407C42.5761 23.1275 43.0458 22.7019 43.4176 22.1637C43.7895 21.6255 44.0683 21.009 44.2543 20.3142C44.45 19.6097 44.5478 18.8611 44.5478 18.0685V17.7309C44.5478 16.9481 44.45 16.2093 44.2543 15.5145C44.0683 14.81 43.7846 14.1886 43.4029 13.6504C43.0311 13.1024 42.5614 12.6719 41.9938 12.3587C41.4361 12.0456 40.7805 11.889 40.027 11.889C39.2833 11.889 38.6277 12.0456 38.0601 12.3587C37.5024 12.6719 37.0327 13.1024 36.651 13.6504C36.2792 14.1886 36.0003 14.81 35.8144 15.5145C35.6285 16.2093 35.5355 16.9481 35.5355 17.7309Z" fill="#66A0F0"/>
<path d="M57.2737 26.1267C56.1679 26.1267 55.1649 25.9408 54.2647 25.569C53.3742 25.1873 52.6061 24.654 51.9602 23.9691C51.3242 23.2841 50.8349 22.4719 50.4924 21.5325C50.1499 20.5931 49.9787 19.5657 49.9787 18.4501V17.8336C49.9787 16.542 50.1695 15.3922 50.5511 14.3843C50.9328 13.3666 51.4514 12.5055 52.107 11.801C52.7626 11.0964 53.5063 10.5631 54.3381 10.2011C55.1698 9.83901 56.0309 9.65799 56.9214 9.65799C58.0565 9.65799 59.035 9.85369 59.857 10.2451C60.6888 10.6365 61.3688 11.1845 61.8972 11.889C62.4257 12.5838 62.8171 13.4058 63.0715 14.355C63.3259 15.2943 63.4531 16.3218 63.4531 17.4373V18.6556H51.5933V16.4392H60.7377V16.2337C60.6985 15.5292 60.5518 14.8442 60.2973 14.1788C60.0527 13.5134 59.6613 12.9654 59.1231 12.5349C58.5849 12.1043 57.851 11.889 56.9214 11.889C56.3049 11.889 55.7374 12.0211 55.2187 12.2854C54.7001 12.5398 54.2549 12.9214 53.883 13.4302C53.5112 13.9391 53.2225 14.5604 53.017 15.2943C52.8115 16.0283 52.7088 16.8747 52.7088 17.8336V18.4501C52.7088 19.2036 52.8115 19.913 53.017 20.5784C53.2323 21.2341 53.5406 21.8114 53.9418 22.3104C54.3527 22.8095 54.8469 23.2009 55.4242 23.4847C56.0114 23.7685 56.6768 23.9104 57.4204 23.9104C58.3794 23.9104 59.1916 23.7146 59.857 23.3232C60.5224 22.9318 61.1046 22.4083 61.6037 21.7527L63.2476 23.059C62.9051 23.5777 62.4697 24.0718 61.9413 24.5415C61.4129 25.0112 60.7621 25.3928 59.9891 25.6864C59.2258 25.98 58.3207 26.1267 57.2737 26.1267Z" fill="#66A0F0"/>
<path d="M69.5739 9.95155V25.8332H66.8437V9.95155H69.5739ZM66.6383 5.73895C66.6383 5.29861 66.7704 4.92677 67.0346 4.62342C67.3085 4.32007 67.7097 4.1684 68.2382 4.1684C68.7568 4.1684 69.1531 4.32007 69.4271 4.62342C69.7109 4.92677 69.8527 5.29861 69.8527 5.73895C69.8527 6.15972 69.7109 6.52178 69.4271 6.82513C69.1531 7.11869 68.7568 7.26547 68.2382 7.26547C67.7097 7.26547 67.3085 7.11869 67.0346 6.82513C66.7704 6.52178 66.6383 6.15972 66.6383 5.73895Z" fill="#66A0F0"/>
<path d="M83.9436 22.7508V3.28772H86.6738V25.8332H84.1785L83.9436 22.7508ZM73.258 18.0685V17.7603C73.258 16.5469 73.4048 15.446 73.6984 14.4577C74.0017 13.4596 74.4274 12.6034 74.9754 11.889C75.5331 11.1747 76.1936 10.6267 76.9569 10.2451C77.7299 9.85369 78.5911 9.65799 79.5402 9.65799C80.5383 9.65799 81.4092 9.83412 82.1529 10.1864C82.9064 10.5289 83.5424 11.0328 84.0611 11.6982C84.5895 12.3539 85.0054 13.1465 85.3087 14.0761C85.6121 15.0057 85.8224 16.0576 85.9399 17.2318V18.5822C85.8322 19.7467 85.6218 20.7937 85.3087 21.7233C85.0054 22.6529 84.5895 23.4455 84.0611 24.1012C83.5424 24.7568 82.9064 25.2607 82.1529 25.613C81.3995 25.9555 80.5188 26.1267 79.5109 26.1267C78.5813 26.1267 77.7299 25.9261 76.9569 25.5249C76.1936 25.1237 75.5331 24.5611 74.9754 23.837C74.4274 23.1128 74.0017 22.2615 73.6984 21.283C73.4048 20.2947 73.258 19.2232 73.258 18.0685ZM75.9882 17.7603V18.0685C75.9882 18.8611 76.0664 19.6048 76.223 20.2996C76.3894 20.9943 76.6438 21.6059 76.9863 22.1343C77.3288 22.6627 77.7642 23.0786 78.2926 23.3819C78.821 23.6755 79.4522 23.8223 80.1861 23.8223C81.0863 23.8223 81.8251 23.6315 82.4025 23.2498C82.9896 22.8682 83.4593 22.3643 83.8116 21.738C84.1638 21.1117 84.4378 20.4317 84.6335 19.6978V16.1604C84.5161 15.6222 84.3449 15.1035 84.1198 14.6045C83.9045 14.0956 83.6207 13.6455 83.2685 13.2541C82.926 12.8529 82.5003 12.5349 81.9915 12.3C81.4924 12.0652 80.9004 11.9478 80.2154 11.9478C79.4717 11.9478 78.8308 12.1043 78.2926 12.4175C77.7642 12.7208 77.3288 13.1416 76.9863 13.6798C76.6438 14.2082 76.3894 14.8247 76.223 15.5292C76.0664 16.224 75.9882 16.9676 75.9882 17.7603Z" fill="#66A0F0"/>
<path fill-rule="evenodd" clip-rule="evenodd" d="M19.8867 0H28.1818V31H20.2909V17.2549L14.9243 28.8354C14.4137 29.9372 12.8416 29.9203 12.3549 28.8077L0.939394 2.71513V30.0606H7.13939V20.0091H8.07879V31H0V0.469697L0.900013 0.281434L13.2155 28.4312C13.3778 28.802 13.9018 28.8077 14.072 28.4404L20.3344 14.9268L21.2303 15.1242V30.0606H27.2424V0.939394H20.5072L14.2041 15.7125L7.18346 0.668325L8.03472 0.271069L14.1656 13.4088L19.8867 0Z" fill="#66A0F0"/>
<path d="M8 0H0L12.6046 28.0102C12.9557 28.7905 14.0609 28.7981 14.4227 28.0228L20.5 15V30.5H28V0H20L14 13.5L8 0Z" fill="#66A0F0" stroke="#66A0F0"/>
</g>
<defs>
<clipPath id="clip0_1_2">
<rect width="87" height="31" fill="white"/>
</clipPath>
</defs>
</svg>
